<?xml version="1.0" encoding="UTF-8"?> <svg xmlns="http://www.w3.org/2000/svg" width="905" height="785" viewBox="0 0 905 785" fill="none"> <path d="M1 772.789H904" stroke="#263238" stroke-linecap="round" stroke-linejoin="round"></path> <path d="M695.935 468.177V468.408C695.935 468.786 696.019 469.185 696.187 469.605C697.126 474.206 697.827 478.852 698.287 483.526C698.686 487.537 699.001 492.114 699.085 497.216C699.284 509.008 698.476 520.796 696.67 532.45C696.208 535.516 695.662 538.75 695.011 541.983C693.983 547.317 692.723 552.902 691.169 558.676C690.476 561.364 689.678 564.115 688.838 566.886L687.851 570.267C687.473 571.632 687.095 572.997 686.738 574.466C684.325 583.795 682.397 593.243 680.964 602.771C679.179 614.635 678.066 626.414 677.458 637.564C676.639 652.43 676.681 666.163 677.038 677.459C677.027 677.648 677.027 677.838 677.038 678.026C677.416 689.512 678.129 698.52 678.612 703.643C678.885 706.646 679.074 708.347 679.095 708.452" stroke="#263238" stroke-linecap="round" stroke-linejoin="round"></path> <path d="M695.998 468.471C692.855 465.677 689.067 463.707 684.975 462.738Z" fill="white"></path> <path d="M695.998 468.471C692.855 465.677 689.067 463.707 684.975 462.738" stroke="#263238" stroke-linecap="round" stroke-linejoin="round"></path> <path d="M698.35 483.589L703.935 478.529" stroke="#263238" stroke-linecap="round" stroke-linejoin="round"></path> <path d="M691.232 558.697C690.939 557.223 690.503 555.782 689.93 554.393C689.102 552.355 687.977 550.452 686.592 548.744C685.557 547.461 684.38 546.299 683.085 545.28" stroke="#263238" stroke-linecap="round" stroke-linejoin="round"></path> <path d="M686.76 574.445C687.551 572.484 688.737 570.707 690.243 569.222C691.749 567.738 693.544 566.578 695.516 565.815" stroke="#263238" stroke-linecap="round" stroke-linejoin="round"></path> <path d="M677.059 652.556C678.927 650.289 680.334 641.701 681.09 637.081C681.279 635.989 681.426 634.981 681.573 634.373" fill="white"></path> <path d="M677.059 652.556C678.927 650.289 680.334 641.701 681.09 637.081C681.279 635.989 681.426 634.981 681.573 634.373" stroke="#263238" stroke-linecap="round" stroke-linejoin="round"></path> <path d="M662.675 668.137C663.297 668.074 663.923 668.074 664.544 668.137C667.294 668.404 669.92 669.415 672.139 671.061C674.359 672.707 676.088 674.926 677.143 677.48" fill="white"></path> <path d="M662.675 668.137C663.297 668.074 663.923 668.074 664.544 668.137C667.294 668.404 669.92 669.415 672.139 671.061C674.359 672.707 676.088 674.926 677.143 677.48" stroke="#263238" stroke-linecap="round" stroke-linejoin="round"></path> <path d="M695.074 542.151C695.074 542.151 696.061 508.072 677.353 495.705" stroke="#263238" stroke-linecap="round" stroke-linejoin="round"></path> <path d="M696.67 615.202C699.127 623.16 681.972 638.299 681.972 638.299C681.972 638.299 659.316 635.465 656.775 627.528C654.234 619.591 660.051 606.53 671.053 603.17C682.056 599.811 694.298 607.244 696.67 615.202Z" fill="#202020"></path> <path d="M715.757 518.76C713.658 527.159 697.364 533.186 697.364 533.186C697.364 533.186 686.172 520.104 688.272 511.663C690.371 503.222 699.421 493.941 707.022 495.894C714.624 497.847 717.941 510.319 715.757 518.76Z" fill="#202020"></path> <path d="M650.686 644.892C660.87 648.84 667.106 666.856 667.106 666.856C667.106 666.856 650.308 675.906 640.145 671.937C629.982 667.969 619.148 656.798 622.087 649.344C625.027 641.89 640.502 640.84 650.686 644.892Z" fill="#202020"></path> <path d="M673.006 545.784C675.067 547.517 677.431 548.856 679.977 549.732C681.256 550.145 682.623 550.2 683.931 549.889C685.238 549.578 686.434 548.913 687.39 547.968C689.489 545.469 688.985 541.669 687.621 538.54C684.891 532.556 674.854 522.372 667.148 525.291C656.019 529.553 668.051 542.152 673.006 545.784Z" fill="#202020"></path> <path d="M695.788 561.05C694.318 562.855 692.765 565.144 693.584 567.349C694.04 568.275 694.79 569.024 695.717 569.48C696.643 569.936 697.695 570.072 698.707 569.869C700.721 569.39 702.601 568.465 704.208 567.16C708.135 564.43 716.198 558.761 711.054 553.364C705.909 547.968 698.77 557.249 695.788 561.05Z" fill="#202020"></path> <path d="M662.927 484.891C662.08 484.94 661.269 485.254 660.61 485.789C659.95 486.324 659.476 487.053 659.253 487.872C658.917 489.825 660.534 491.526 662.087 492.723C665.993 495.746 677.731 503.851 680.334 496.019C682.812 488.628 668.093 484.324 662.927 484.891Z" fill="#202020"></path> <path d="M684.534 459.148C682.119 459.379 679.705 458.497 677.269 458.644C674.833 458.791 672.166 460.744 672.691 463.138C673.216 465.531 675.925 466.056 678.151 466.182C681.983 466.428 685.831 466.167 689.594 465.405C690.486 465.321 691.311 464.9 691.904 464.229C692.891 462.781 691.337 460.849 689.657 460.345C687.933 460.116 686.237 459.707 684.597 459.127L684.534 459.148Z" fill="#202020"></path> <path d="M708.177 475.799C710.592 475.799 712.943 474.833 715.379 474.812C717.815 474.791 720.628 476.576 720.229 479.011C719.83 481.447 717.227 482.14 715.001 482.413C711.196 482.917 707.341 482.917 703.536 482.413C702.635 482.392 701.778 482.023 701.143 481.384C700.072 480.019 701.5 477.982 703.116 477.352C704.828 477.033 706.498 476.519 708.093 475.82L708.177 475.799Z" fill="#202020"></path> <path d="M705.783 654.74C706.34 654.16 707.084 653.795 707.883 653.711C708.423 653.763 708.927 654 709.311 654.384C709.694 654.767 709.932 655.272 709.983 655.811C710.099 656.849 709.969 657.899 709.605 658.877C707.946 664.399 689.468 704.274 685.206 697.113C682.707 692.914 688.88 678.866 690.707 674.898C694.193 667.154 699.34 660.272 705.783 654.74V654.74Z" fill="#202020"></path> <path d="M696.775 470.76C696.775 470.76 695.662 461.08 697.993 460.261" stroke="#263238" stroke-linecap="round" stroke-linejoin="round"></path> <path d="M694.717 460.66C695.908 457.241 697.962 454.189 700.681 451.799C703.599 449.699 708.282 449.531 710.402 452.45C712.775 455.704 710.402 460.639 706.77 462.381C703.137 464.124 698.854 463.599 694.864 463.032C694.864 462.444 694.864 461.856 694.864 461.269L694.717 460.66Z" fill="#202020"></path> <path d="M704.671 772.305C684.877 775.644 664.664 775.644 644.87 772.305V772.305L621.604 703.664H727.936L704.671 772.305Z" fill="white" stroke="#263238" stroke-linecap="round" stroke-linejoin="round"></path> <path d="M298.872 276.385V276.616C298.956 276.994 299.04 277.393 299.124 277.813C300.075 282.412 300.776 287.059 301.223 291.734C301.622 295.745 301.916 300.322 302.021 305.425C302.237 317.187 301.45 328.946 299.67 340.575C299.208 343.64 298.662 346.874 298.011 350.108C296.982 355.441 295.701 361.026 294.168 366.801C293.454 369.488 292.677 372.239 291.838 375.011C291.502 376.145 291.166 377.258 290.851 378.391C290.536 379.525 290.074 381.121 289.717 382.591" stroke="#263238" stroke-linecap="round" stroke-linejoin="round"></path> <path d="M298.914 276.679C297.407 275.36 295.76 274.212 294 273.257C292.061 272.234 290.001 271.458 287.869 270.947" fill="white"></path> <path d="M298.914 276.679C297.407 275.36 295.76 274.212 294 273.257C292.061 272.234 290.001 271.458 287.869 270.947" stroke="#263238" stroke-linecap="round" stroke-linejoin="round"></path> <path d="M301.266 291.797L306.872 286.737" stroke="#263238" stroke-linecap="round" stroke-linejoin="round"></path> <path d="M294.169 366.906C293.869 365.431 293.426 363.99 292.846 362.601C292.018 360.564 290.893 358.66 289.507 356.953C288.472 355.67 287.296 354.508 286 353.488" stroke="#263238" stroke-linecap="round" stroke-linejoin="round"></path> <path d="M289.696 382.57C290.479 380.608 291.66 378.828 293.163 377.343C294.666 375.858 296.459 374.7 298.431 373.94" stroke="#263238" stroke-linecap="round" stroke-linejoin="round"></path> <path d="M279.974 460.764C281.842 458.497 283.27 449.909 284.026 445.289C284.194 444.197 284.362 443.189 284.488 442.581" fill="white"></path> <path d="M279.974 460.764C281.842 458.497 283.27 449.909 284.026 445.289C284.194 444.197 284.362 443.189 284.488 442.581" stroke="#263238" stroke-linecap="round" stroke-linejoin="round"></path> <path d="M265.59 476.261C266.219 476.198 266.852 476.198 267.48 476.261C270.228 476.535 272.851 477.549 275.069 479.194C277.288 480.839 279.019 483.055 280.079 485.605" fill="white"></path> <path d="M265.59 476.261C266.219 476.198 266.852 476.198 267.48 476.261C270.228 476.535 272.851 477.549 275.069 479.194C277.288 480.839 279.019 483.055 280.079 485.605" stroke="#263238" stroke-linecap="round" stroke-linejoin="round"></path> <path d="M297.99 350.276C297.99 350.276 298.998 316.197 280.268 303.829" stroke="#263238" stroke-linecap="round" stroke-linejoin="round"></path> <path d="M299.69 423.41C302.126 431.368 284.992 446.507 284.992 446.507C284.992 446.507 262.315 443.673 259.795 435.736C257.275 427.798 263.092 414.738 274.073 411.378C285.055 408.019 297.234 415.473 299.69 423.41Z" fill="#202020"></path> <path d="M318.714 326.968C316.615 335.367 300.32 341.394 300.32 341.394C300.32 341.394 289.003 328.312 291.186 319.871C293.37 311.43 302.315 302.149 309.916 304.102C317.517 306.055 320.814 318.527 318.714 326.968Z" fill="#202020"></path> <path d="M253.622 453.101C263.806 457.069 270.063 475.064 270.063 475.064C270.063 475.064 253.265 484.114 243.081 480.145C232.897 476.177 222.084 465.006 225.044 457.552C228.005 450.098 243.417 449.132 253.622 453.101Z" fill="#202020"></path> <path d="M275.942 353.992C277.996 355.725 280.352 357.063 282.892 357.94C284.171 358.354 285.538 358.408 286.846 358.097C288.153 357.786 289.35 357.121 290.305 356.176C292.404 353.677 291.9 349.877 290.536 346.748C287.806 340.764 277.79 330.58 270.063 333.499C258.955 337.719 270.966 350.318 275.942 353.992Z" fill="#202020"></path> <path d="M298.704 369.278C297.255 371.084 295.701 373.478 296.499 375.578C296.956 376.504 297.706 377.253 298.632 377.709C299.559 378.164 300.61 378.301 301.623 378.097C303.638 377.623 305.519 376.697 307.124 375.389C311.051 372.68 319.114 366.99 313.969 361.593C308.825 356.197 301.791 365.457 298.704 369.278Z" fill="#202020"></path> <path d="M265.842 293.099C264.996 293.152 264.186 293.467 263.528 294.002C262.869 294.536 262.394 295.263 262.168 296.081C261.832 298.034 263.449 299.734 265.023 300.931C268.929 303.955 280.646 312.06 283.27 304.228C285.727 296.837 271.029 292.532 265.842 293.099Z" fill="#202020"></path> <path d="M287.449 267.357C285.034 267.587 282.62 266.706 280.205 266.853C277.79 267 275.082 268.952 275.628 271.346C276.174 273.74 278.84 274.265 281.087 274.391C284.912 274.637 288.753 274.375 292.51 273.614C293.407 273.53 294.24 273.11 294.84 272.438C295.806 270.989 294.252 269.057 292.594 268.553C290.862 268.325 289.159 267.916 287.512 267.336L287.449 267.357Z" fill="#202020"></path> <path d="M311.092 284.007C313.528 284.007 315.88 283.041 318.294 283.02C320.709 282.999 323.544 284.784 323.166 287.22C322.788 289.655 320.142 290.348 317.916 290.621C314.111 291.125 310.257 291.125 306.452 290.621C305.551 290.601 304.693 290.232 304.058 289.592C302.987 288.228 304.415 286.191 306.053 285.561C307.763 285.235 309.432 284.721 311.029 284.028L311.092 284.007Z" fill="#202020"></path> <path d="M308.698 462.948C309.257 462.371 310 462.007 310.798 461.919C311.333 461.982 311.832 462.223 312.213 462.604C312.594 462.985 312.835 463.484 312.898 464.019C313.007 465.058 312.87 466.108 312.499 467.085C310.861 472.607 292.362 512.482 288.121 505.321C285.601 501.122 291.774 487.075 293.601 483.106C297.093 475.36 302.248 468.478 308.698 462.948V462.948Z" fill="#202020"></path> <path d="M299.69 279.01C299.69 279.01 298.577 269.33 300.929 268.511" stroke="#263238" stroke-linecap="round" stroke-linejoin="round"></path> <path d="M297.717 268.868C298.892 265.442 300.949 262.386 303.68 260.007C306.599 257.907 311.26 257.739 313.381 260.658C315.754 263.913 313.381 268.847 309.748 270.59C306.116 272.333 301.853 271.808 297.864 271.241C297.864 270.653 297.864 270.065 297.864 269.477L297.717 268.868Z" fill="#202020"></path> <path d="M32.8325 508.493V301.016" stroke="#263238" stroke-linecap="round" stroke-linejoin="round"></path> <path d="M680.608 508.493H654.97" stroke="#263238" stroke-linecap="round" stroke-linejoin="round"></path> <path d="M881.659 508.493H829.438" stroke="#263238" stroke-linecap="round" stroke-linejoin="round"></path> <path d="M652.617 193.298H745.153V105.15" stroke="#263238" stroke-linecap="round" stroke-linejoin="round"></path> <path d="M113.274 166.379H211.584V238.086H319.344" stroke="#263238" stroke-linecap="round" stroke-linejoin="round"></path> <path d="M55.2788 409.216V250.769" stroke="#263238" stroke-linecap="round" stroke-linejoin="round"></path> <path d="M99.2061 182.001V306.181" stroke="#263238" stroke-linecap="round" stroke-linejoin="round"></path> <path d="M143.112 182.001V291.777" stroke="#263238" stroke-linecap="round" stroke-linejoin="round"></path> <path d="M187.018 182.001V374.024" stroke="#263238" stroke-linecap="round" stroke-linejoin="round"></path> <path d="M397.35 154.768V28.5093H576.102V154.768" stroke="#263238" stroke-linecap="round" stroke-linejoin="round"></path> <path d="M410.453 91.2292V43.5017H443.503" stroke="#263238" stroke-linecap="round" stroke-linejoin="round"></path> <path d="M450.768 91.2292V43.5017H483.818" stroke="#263238" stroke-linecap="round" stroke-linejoin="round"></path> <path d="M491.083 91.2292V43.5017H524.134" stroke="#263238" stroke-linecap="round" stroke-linejoin="round"></path> <path d="M531.398 91.2292V43.5017H564.449" stroke="#263238" stroke-linecap="round" stroke-linejoin="round"></path> <path d="M410.453 154.767V107.04H443.503" stroke="#263238" stroke-linecap="round" stroke-linejoin="round"></path> <path d="M450.768 154.767V107.04H483.818" stroke="#263238" stroke-linecap="round" stroke-linejoin="round"></path> <path d="M491.083 154.767V107.04H524.134" stroke="#263238" stroke-linecap="round" stroke-linejoin="round"></path> <path d="M531.398 154.767V107.04H564.449" stroke="#263238" stroke-linecap="round" stroke-linejoin="round"></path> <path d="M759.475 116.069V274.286" stroke="#263238" stroke-linecap="round" stroke-linejoin="round"></path> <path d="M824.377 496.902H829.438" stroke="#263238" stroke-linecap="round" stroke-linejoin="round"></path> <path d="M798.383 161.508V338.643" stroke="#263238" stroke-linecap="round" stroke-linejoin="round"></path> <path d="M837.312 451.673V496.902H868.368" stroke="#263238" stroke-linecap="round" stroke-linejoin="round"></path> <path d="M837.312 219.251V339.546" stroke="#263238" stroke-linecap="round" stroke-linejoin="round"></path> <path d="M876.221 310.528V496.902H883.297" stroke="#263238" stroke-linecap="round" stroke-linejoin="round"></path> <path d="M402.053 512.293H1V772.789H402.053V512.293Z" fill="white" stroke="#263238" stroke-linecap="round" stroke-linejoin="round"></path> <path d="M1 512.293L201.527 642.541L402.053 512.293H1Z" fill="white" stroke="#263238" stroke-linecap="round" stroke-linejoin="round"></path> <path d="M141.243 603.38L1 772.789" stroke="#263238" stroke-linecap="round" stroke-linejoin="round"></path> <path d="M262.902 603.38L403.145 772.789" stroke="#263238" stroke-linecap="round" stroke-linejoin="round"></path> <path d="M616.669 179.901H523.44C520.755 179.904 518.12 180.627 515.808 181.993C513.497 183.359 511.593 185.319 510.296 187.67V187.67C508.005 191.805 504.649 195.251 500.576 197.65C496.503 200.05 491.862 201.315 487.135 201.315C482.408 201.315 477.768 200.05 473.695 197.65C469.622 195.251 466.266 191.805 463.975 187.67V187.67C462.688 185.289 460.781 183.3 458.456 181.914C456.131 180.528 453.474 179.796 450.768 179.796H357.643C355.087 179.763 352.55 180.233 350.175 181.181C347.801 182.128 345.636 183.534 343.806 185.319C341.975 187.103 340.513 189.23 339.504 191.579C338.496 193.928 337.96 196.453 337.927 199.009V724.83C337.999 729.991 340.115 734.912 343.812 738.514C347.508 742.116 352.483 744.104 357.643 744.043H616.669C621.832 744.104 626.809 742.117 630.509 738.515C634.209 734.914 636.33 729.992 636.407 724.83V199.114C636.335 193.949 634.216 189.025 630.515 185.422C626.814 181.82 621.834 179.834 616.669 179.901Z" fill="#202020"></path> <path d="M645.499 193.298C645.51 189.756 644.822 186.246 643.474 182.971C642.126 179.695 640.145 176.718 637.645 174.209C635.144 171.7 632.173 169.71 628.901 168.352C625.63 166.994 622.122 166.295 618.58 166.295H355.754C352.22 166.292 348.72 166.986 345.454 168.336C342.188 169.687 339.221 171.668 336.721 174.166C334.221 176.664 332.238 179.63 330.884 182.895C329.531 186.159 328.835 189.659 328.835 193.193V193.193V745.828C328.835 752.961 331.669 759.803 336.713 764.847C341.757 769.892 348.599 772.725 355.733 772.725H618.58C625.716 772.725 632.56 769.892 637.607 764.848C642.655 759.805 645.494 752.963 645.499 745.828V745.828V193.298ZM636.407 724.83C636.33 729.993 634.209 734.914 630.509 738.515C626.809 742.117 621.832 744.104 616.669 744.043H357.644C352.483 744.104 347.508 742.116 343.812 738.514C340.115 734.912 337.999 729.991 337.927 724.83V199.114C337.96 196.558 338.496 194.033 339.505 191.684C340.513 189.335 341.975 187.208 343.806 185.424C345.637 183.64 347.801 182.234 350.175 181.286C352.55 180.339 355.087 179.868 357.644 179.901H450.81C453.514 179.901 456.168 180.632 458.49 182.019C460.811 183.405 462.714 185.394 463.996 187.775V187.775C466.287 191.91 469.643 195.356 473.716 197.756C477.789 200.155 482.43 201.421 487.157 201.421C491.884 201.421 496.524 200.155 500.597 197.756C504.67 195.356 508.026 191.91 510.317 187.775C511.611 185.422 513.514 183.459 515.826 182.092C518.138 180.725 520.775 180.005 523.461 180.006H616.69C619.247 179.973 621.784 180.444 624.159 181.391C626.533 182.339 628.697 183.745 630.528 185.529C632.359 187.313 633.821 189.44 634.83 191.789C635.838 194.138 636.374 196.663 636.407 199.219V724.83Z" fill="#263238"></path> <path opacity="0.2" d="M556.196 166.379L381.602 772.767L450.936 772.704L619.063 166.379H556.196Z" fill="white"></path> <path opacity="0.2" d="M530.159 166.379L345.57 772.788L355.67 772.726L536.795 166.379H530.159Z" fill="white"></path> <path d="M533.225 534.799C533.351 540.807 532.274 546.781 530.057 552.367C527.84 557.953 524.527 563.04 520.315 567.327C516.102 571.613 511.075 575.014 505.528 577.329C499.981 579.643 494.028 580.825 488.018 580.804C475.753 580.763 463.99 575.928 455.241 567.332C446.492 558.737 441.45 547.061 441.193 534.799C441.061 528.787 442.134 522.81 444.349 517.22C446.564 511.63 449.876 506.54 454.089 502.251C458.303 497.961 463.332 494.558 468.882 492.243C474.431 489.928 480.388 488.748 486.401 488.772C498.668 488.818 510.43 493.658 519.179 502.257C527.927 510.856 532.968 522.534 533.225 534.799V534.799Z" fill="white" stroke="#263238" stroke-linecap="round" stroke-linejoin="round"></path> <path d="M516.091 530.598C501.666 521.149 473.382 521.149 459.629 530.598C457.113 531.07 454.852 532.43 453.256 534.431C451.66 536.431 450.837 538.939 450.936 541.496C451.146 547.606 476.532 547.606 476.322 541.496C476.198 538.942 475.222 536.502 473.55 534.567C483.071 532.509 492.922 532.509 502.443 534.567C500.893 536.537 500.09 538.991 500.175 541.496C500.385 547.606 525.771 547.606 525.54 541.496C525.421 538.882 524.423 536.384 522.709 534.406C520.994 532.428 518.663 531.087 516.091 530.598V530.598Z" fill="#202020" stroke="#263238" stroke-linecap="round" stroke-linejoin="round"></path> <path d="M533.225 381.558C533.477 392.875 527.304 402.996 517.393 409.736V437.222L497.676 417.485C494.488 418.054 491.256 418.336 488.017 418.324C462.61 418.324 441.634 401.862 441.193 381.558C440.752 361.253 460.972 344.812 486.4 344.812C511.828 344.812 532.889 361.358 533.225 381.558Z" fill="white" stroke="#263238" stroke-linecap="round" stroke-linejoin="round"></path> <path d="M467.608 381.558C467.612 382.738 467.266 383.893 466.613 384.876C465.961 385.86 465.031 386.627 463.942 387.082C462.852 387.536 461.653 387.658 460.494 387.43C459.336 387.202 458.272 386.636 457.436 385.803C456.6 384.97 456.03 383.907 455.798 382.75C455.566 381.592 455.683 380.392 456.134 379.301C456.584 378.21 457.349 377.278 458.33 376.622C459.311 375.966 460.465 375.615 461.645 375.615C463.223 375.615 464.736 376.241 465.854 377.354C466.972 378.468 467.603 379.98 467.608 381.558V381.558Z" fill="#202020" stroke="#263238" stroke-linecap="round" stroke-linejoin="round"></path> <path d="M493.12 381.558C493.124 382.738 492.778 383.893 492.125 384.876C491.472 385.86 490.543 386.627 489.453 387.082C488.364 387.536 487.164 387.658 486.006 387.43C484.848 387.202 483.784 386.636 482.947 385.803C482.111 384.97 481.541 383.907 481.309 382.75C481.078 381.592 481.195 380.392 481.645 379.301C482.096 378.21 482.86 377.278 483.841 376.622C484.823 375.966 485.976 375.615 487.157 375.615C488.735 375.615 490.248 376.241 491.366 377.354C492.484 378.468 493.114 379.98 493.12 381.558V381.558Z" fill="#202020" stroke="#263238" stroke-linecap="round" stroke-linejoin="round"></path> <path d="M518.632 381.558C518.636 382.738 518.29 383.893 517.637 384.876C516.984 385.86 516.054 386.627 514.965 387.082C513.876 387.536 512.676 387.658 511.518 387.43C510.36 387.202 509.295 386.636 508.459 385.803C507.623 384.97 507.053 383.907 506.821 382.75C506.589 381.592 506.706 380.392 507.157 379.301C507.608 378.21 508.372 377.278 509.353 376.622C510.334 375.966 511.488 375.615 512.668 375.615C514.246 375.615 515.76 376.241 516.878 377.354C517.995 378.468 518.626 379.98 518.632 381.558V381.558Z" fill="#202020" stroke="#263238" stroke-linecap="round" stroke-linejoin="round"></path> <path d="M726.696 398.843C726.696 398.843 653.52 421.521 639.746 403.61L641.614 312.25H652.722L665.783 376.607L725.752 365.625C725.752 365.625 733.437 389.437 726.696 398.843Z" fill="white"></path> <path d="M695.872 402.035C691.676 403.703 687.671 405.815 683.924 408.335C688.88 409.909 694.171 407.915 699.127 406.34C705.671 404.33 712.342 402.759 719.095 401.636C719.41 399.768 716.996 395.505 716.051 393.846C714.329 390.949 713.951 390.697 711.053 392.124C705.783 394.77 701.289 399.369 695.872 402.035Z" fill="#202020"></path> <path d="M726.696 398.843C726.696 398.843 653.52 421.521 639.746 403.61L641.614 312.25H652.722L665.783 376.607L725.752 365.625C725.752 365.625 733.437 389.437 726.696 398.843Z" stroke="#263238" stroke-linecap="round" stroke-linejoin="round"></path> <path d="M719.515 401.237L732.366 480.356C732.03 531.632 756.492 523.926 773.479 523.779C793.112 523.611 822.907 504.146 808.293 473.846L813.92 364.176L779.715 361.572C768.44 360.691 722.245 362.139 718.57 368.04C709.038 383.347 719.515 401.237 719.515 401.237Z" fill="white"></path> <path d="M721.531 407.767C729.163 436.638 747.466 461.537 772.744 477.437C770.008 477.004 767.335 476.235 764.786 475.148C762.222 474.044 759.349 473.888 756.681 474.707C756.037 474.94 755.444 475.297 754.938 475.758C754.432 476.22 754.022 476.777 753.731 477.397C753.441 478.017 753.275 478.689 753.245 479.373C753.214 480.057 753.319 480.741 753.552 481.385C754.165 482.368 754.999 483.195 755.988 483.799C760.157 486.73 764.716 489.062 769.532 490.728C765.308 490.295 761.041 490.622 756.933 491.694C756.177 495.348 760.251 497.994 763.463 499.778C768.589 502.8 772.978 506.924 776.314 511.852C765.039 511.876 753.774 512.521 742.571 513.784C741.094 514.115 739.549 513.968 738.161 513.364C736.708 512.282 735.729 510.679 735.432 508.891C732.935 500.156 731.483 491.155 731.106 482.077C730.896 476.975 731.106 471.831 730.434 466.77C729.893 462.781 729.15 458.821 728.208 454.907C724.947 439.76 722.448 424.495 720.712 409.111C719.935 409.174 721.531 407.767 721.531 407.767Z" fill="#202020"></path> <path d="M808.272 401.468C805.44 400.559 802.799 399.136 800.482 397.269C801.133 400.418 805.837 405.857 808.587 407.536C809.154 407.893 809.973 408.187 810.477 407.704C810.981 407.221 811.317 405.983 811.821 405.605L808.272 401.468Z" fill="#202020"></path> <path d="M719.515 401.237L732.366 480.356C732.03 531.632 756.492 523.926 773.479 523.779C793.112 523.611 822.907 504.146 808.293 473.846L813.92 364.176L779.715 361.572C768.44 360.691 722.245 362.139 718.57 368.04C709.038 383.347 719.515 401.237 719.515 401.237Z" stroke="#263238" stroke-linecap="round" stroke-linejoin="round"></path> <path d="M744.523 359.956C740.843 366.695 739.071 374.311 739.4 381.982C739.396 382.652 739.524 383.316 739.778 383.935C740.723 385.804 743.306 385.804 745.384 386.035C753.468 387.064 758.487 395.589 766.109 398.444C766.376 398.609 766.674 398.718 766.984 398.765C767.294 398.812 767.611 398.796 767.915 398.718C768.219 398.639 768.504 398.5 768.753 398.309C769.002 398.118 769.209 397.878 769.364 397.605C772.681 393.405 773.857 387.505 778.392 384.796C780.366 383.62 782.865 383.137 784.23 381.289C785.784 379.19 785.091 376.166 784.335 373.604C783.096 369.405 781.71 365.037 778.497 362.119C775.075 359.447 770.87 357.972 766.529 357.919C760.175 357.399 753.779 357.996 747.631 359.683C747.715 360.481 744.523 359.956 744.523 359.956Z" fill="#202020" stroke="#263238" stroke-linecap="round" stroke-linejoin="round"></path> <path d="M846.152 413.647C841.02 406.175 837.239 397.859 834.981 389.08C834.159 384.682 832.878 380.382 831.159 376.25C829.538 373.059 827.198 370.289 824.323 368.157C821.448 366.025 818.117 364.591 814.592 363.967C813.088 363.636 811.524 363.708 810.057 364.177C807.012 365.332 805.668 368.838 805.059 372.03C803.742 378.885 804.131 385.959 806.193 392.629C807.6 397.164 824.503 430.046 835.59 442.792C834.624 436.366 842.015 414.886 846.152 413.647Z" fill="white"></path> <path d="M812.996 407.201L823.369 426.75C824.86 429.542 826.54 432.524 829.437 433.742C827.614 427.283 826.578 420.627 826.351 413.92C826.465 410.55 826.075 407.181 825.196 403.925C824.776 404.282 824.335 402.77 824.335 402.77C823.873 403.631 822.655 403.652 821.71 403.463C814.928 402.035 810.267 395.988 806.235 390.361C805.71 392.246 805.627 394.227 805.991 396.149C806.355 398.072 807.157 399.885 808.335 401.448C808.335 401.448 812.66 406.55 812.996 407.201Z" fill="#202020"></path> <path d="M846.152 413.647C841.02 406.175 837.239 397.859 834.981 389.08C834.159 384.682 832.878 380.382 831.159 376.25C829.538 373.059 827.198 370.289 824.323 368.157C821.448 366.025 818.117 364.591 814.592 363.967C813.088 363.636 811.524 363.708 810.057 364.177C807.012 365.332 805.668 368.838 805.059 372.03C803.742 378.885 804.131 385.959 806.193 392.629C807.6 397.164 824.503 430.046 835.59 442.792C834.624 436.366 842.015 414.886 846.152 413.647Z" stroke="#263238" stroke-linecap="round" stroke-linejoin="round"></path> <path d="M831.579 437.164C820.283 415.516 825.742 365.626 825.406 357.605L840.314 356.807C841.805 356.807 848.713 399.348 853.417 417.007C857.616 433.091 853.585 449.364 846.152 449.364C839.978 449.364 833.952 441.721 831.579 437.164Z" fill="white" stroke="#263238" stroke-linecap="round" stroke-linejoin="round"></path> <path d="M696.964 380.954C707.463 365.626 728.061 364.408 728.061 364.408" stroke="#263238" stroke-linecap="round" stroke-linejoin="round"></path> <path d="M656.459 389.541C659.635 386.624 662.124 383.038 663.746 379.042Z" fill="white"></path> <path d="M656.459 389.541C659.635 386.624 662.124 383.038 663.746 379.042" stroke="#263238" stroke-linecap="round" stroke-linejoin="round"></path> <path d="M734.465 461.983C740.45 471.789 779.211 482.267 794.665 480.02" stroke="#263238" stroke-linecap="round" stroke-linejoin="round"></path> <path d="M745.426 489.658C756.592 491.579 768.036 491.142 779.022 488.377" stroke="#263238" stroke-linecap="round" stroke-linejoin="round"></path> <path d="M796.85 394.518L804.241 404.534C805.249 405.899 806.656 407.432 808.314 407.054" stroke="#263238" stroke-linecap="round" stroke-linejoin="round"></path> <path d="M851.779 774.448C851.128 777.114 850.918 780.285 852.829 782.28C854.74 784.275 857.511 784.233 860.094 784.191L868.976 784.023C872.401 784.193 875.825 783.657 879.034 782.448C880.639 781.824 882.013 780.722 882.971 779.291C883.929 777.86 884.423 776.169 884.388 774.448C884.169 773.116 883.744 771.827 883.128 770.626C882.33 768.904 881.533 767.162 880.756 765.44C870.95 743.833 855.978 756.978 851.779 774.448Z" fill="white" stroke="#263238" stroke-linecap="round" stroke-linejoin="round"></path> <path d="M839.264 748.978C839.575 758.895 838.743 768.815 836.786 778.542C836.325 780.747 836.786 784.086 838.886 783.876C839.71 783.749 840.457 783.323 840.986 782.679C848.703 775.067 854.224 765.513 856.965 755.025C857.378 753.936 857.569 752.775 857.53 751.611C857.49 750.447 857.22 749.302 856.734 748.243C856.159 747.393 855.45 746.641 854.634 746.017C847.516 740.327 838.613 734.679 839.264 748.978Z" fill="white" stroke="#263238" stroke-linecap="round" stroke-linejoin="round"></path> <path d="M814.886 495.18C814.886 495.18 825.952 514.414 828.325 518.886C830.698 523.359 880.819 589.228 890.436 637.187C892.241 646.3 855.265 748.222 855.265 748.222L846.866 743.476C846.866 743.476 852.703 650.52 851.275 642.793C849.847 635.066 812.955 578.037 812.955 578.037C812.955 578.037 792.356 562.897 783.873 545.301L814.886 495.18Z" fill="#263238"></path> <path d="M816.083 543.37C816.083 543.37 809.784 557.396 809.784 559.412C809.784 561.428 844.43 670.909 854.614 696.232C861.053 712.54 866.729 729.226 871.643 746.29C871.643 746.29 875.59 751.477 872.609 756.789C869.627 762.101 857.763 765.587 855.328 760.842C852.892 756.096 828.892 731.445 818.771 706.92C808.65 682.395 794.414 641.407 786.309 626.142C775.693 606.636 766.268 586.504 758.088 565.858C747.904 539.8 737.489 511.705 737.489 511.705C741.719 512.087 745.969 512.206 750.214 512.062C760.209 511.722 770.106 509.968 779.61 506.855C801.742 499.422 811.317 485.186 811.317 485.186C811.317 485.186 816.797 500.031 818.225 502.907L816.083 543.37Z" fill="#263238"></path> <path d="M886.74 646.573C884.571 650.289 881.654 653.514 878.173 656.043" stroke="white" stroke-linecap="round" stroke-linejoin="round"></path> <path d="M889.448 640.462C889.133 641.485 888.754 642.488 888.314 643.465" stroke="white" stroke-linecap="round" stroke-linejoin="round"></path> <path d="M796.072 510.656C801.658 520.273 806.886 534.11 806.046 545.197C805.596 547.21 804.89 549.158 803.946 550.992" stroke="white" stroke-linecap="round" stroke-linejoin="round"></path> <path d="M762.267 521.343C762.876 526.698 763.694 535.601 762.519 540.85C761.525 546.219 758.445 550.976 753.952 554.078" stroke="white" stroke-linecap="round" stroke-linejoin="round"></path> <path d="M809.889 501.081C811.108 502.601 812.099 504.292 812.828 506.099C814.25 508.695 816.205 510.962 818.564 512.749C820.924 514.537 823.635 515.805 826.519 516.472" stroke="white" stroke-linecap="round" stroke-linejoin="round"></path> <path d="M792.062 522.54C799.474 538.75 805.144 555.002 816.65 582.551" stroke="white" stroke-linecap="round" stroke-linejoin="round"></path> <path d="M788.114 514.246C788.744 515.506 789.353 516.766 789.962 518.026" stroke="white" stroke-linecap="round" stroke-linejoin="round"></path> <path d="M849.805 638.258C853.203 644.805 857.523 650.83 862.635 656.148" stroke="white" stroke-linecap="round" stroke-linejoin="round"></path> <path d="M853.312 644.305C855.536 654.579 859.598 664.367 865.301 673.197" stroke="white" stroke-linecap="round" stroke-linejoin="round"></path> <path d="M801.112 644.83C784.755 609.932 767.306 575.307 745.867 522.54" stroke="white" stroke-linecap="round" stroke-linejoin="round"></path> <path d="M804.808 654.972C804.409 653.754 803.989 652.536 803.548 651.297" stroke="white" stroke-linecap="round" stroke-linejoin="round"></path> <path d="M861.354 762.269C857.154 756.788 826.54 713.974 818.939 694.573C813.878 681.638 810.057 672.504 806.34 659.612" stroke="white" stroke-linecap="round" stroke-linejoin="round"></path> <path d="M849.805 679.875L864.356 722.647" stroke="white" stroke-linecap="round" stroke-linejoin="round"></path> <path d="M839.999 356.827L835.59 357.184C830.002 358.177 824.264 357.912 818.792 356.407C815.285 355.547 807.159 353.027 806.193 352.859C803.779 352.343 801.34 351.95 798.886 351.683C791.474 351.242 795.232 348.47 798.319 348.596C802.393 348.785 803.757 348.701 806.886 348.932C806.508 348.722 805.353 348.491 805.332 347.588C805.332 345.384 808.23 345.489 808.23 345.489C808.23 345.489 805.059 344.145 805.5 342.486C805.941 340.827 808.062 340.386 809.406 340.512C809.406 340.512 807.621 339.651 807.705 338.727C808.083 335.158 815.411 334.906 815.411 334.906C813.639 334.114 811.979 333.09 810.477 331.861C809.928 331.271 809.544 330.547 809.364 329.762C809.324 329.387 809.386 329.009 809.543 328.667C809.7 328.325 809.945 328.032 810.254 327.817C810.563 327.602 810.924 327.475 811.3 327.447C811.675 327.42 812.051 327.494 812.387 327.662C814.283 328.924 816.112 330.284 817.868 331.735C820.135 333.352 822.76 334.381 825.154 335.83C827.487 337.826 829.369 340.296 830.676 343.074C831.054 343.662 839.999 356.827 839.999 356.827Z" fill="white" stroke="#263238" stroke-linecap="round" stroke-linejoin="round"></path> <path d="M641.614 312.25V300.68C641.587 294.874 642.437 289.098 644.134 283.546C645.1 280.48 646.234 277.814 647.263 277.415C649.174 276.722 650.013 284.47 650.013 284.47C648.577 278.257 647.657 271.936 647.263 265.572C647.263 258.832 656.334 286.822 656.334 286.822L652.722 312.25H641.614Z" fill="white" stroke="#263238" stroke-linecap="round" stroke-linejoin="round"></path> <path d="M652.575 293.436C653.672 292.589 654.491 291.434 654.927 290.118Z" fill="white"></path> <path d="M652.575 293.436C653.672 292.589 654.491 291.434 654.927 290.118" stroke="#263238" stroke-linecap="round" stroke-linejoin="round"></path> <path d="M740.513 336.376C744.434 342.978 746.603 350.474 746.812 358.15C747.19 370.917 761.972 388.786 766.193 389.647C770.413 390.508 774.319 369.489 774.13 363.127C773.941 356.765 771.589 339.19 771.589 339.19C771.589 339.19 751.368 323.903 740.513 336.376Z" fill="white" stroke="#263238" stroke-linecap="round" stroke-linejoin="round"></path> <path d="M746.455 353.279C746.455 353.279 765.836 379.715 773.437 352.838C781.038 325.961 752.124 360.187 746.455 353.279Z" fill="#263238"></path> <path d="M779.169 334.276C778.14 349.961 770.98 358.78 762.728 360.334C755.19 361.72 744.166 354.035 738.665 342.633C738.245 342.36 731.547 337.72 729.951 336.586C729.117 336.003 728.438 335.226 727.97 334.323C727.501 333.42 727.259 332.417 727.263 331.399C727.317 330.423 727.661 329.486 728.252 328.707C728.844 327.929 729.655 327.345 730.581 327.032H730.77C731.715 326.826 732.7 326.899 733.604 327.242C732.219 321.888 731.085 316.449 730.224 310.969C730.623 298.37 734.801 288.082 748.24 287.074C761.678 286.066 772.912 293.583 773.437 299C773.815 303.2 775.18 314.307 776.398 325.793C776.733 328.775 779.4 330.749 779.169 334.276Z" fill="white" stroke="#263238" stroke-linecap="round" stroke-linejoin="round"></path> <path d="M773.437 316.134C773.437 316.134 764.786 312.165 766.256 325.058C766.55 327.599 771.274 331.357 771.274 331.357C771.274 331.357 770.057 335.158 767.81 335.158" fill="white"></path> <path d="M773.437 316.134C773.437 316.134 764.786 312.165 766.256 325.058C766.55 327.599 771.274 331.357 771.274 331.357C771.274 331.357 770.057 335.158 767.81 335.158" stroke="#263238" stroke-linecap="round" stroke-linejoin="round"></path> <path d="M756.723 320.544C756.723 320.544 752.313 317.856 749.29 319.515C747.713 320.201 746.37 321.332 745.426 322.769" fill="white"></path> <path d="M756.723 320.544C756.723 320.544 752.313 317.856 749.29 319.515C747.713 320.201 746.37 321.332 745.426 322.769" stroke="#263238" stroke-linecap="round" stroke-linejoin="round"></path> <path d="M754.203 327.977C754.539 329.53 754.203 330.916 753.3 331.105C752.397 331.294 751.515 330.16 751.2 328.607C750.886 327.053 751.2 325.667 752.124 325.478C753.048 325.289 753.888 326.402 754.203 327.977Z" fill="#263238"></path> <path d="M771.253 323.441C771.589 324.995 771.253 326.381 770.35 326.57C769.447 326.759 768.565 325.625 768.25 324.092C767.935 322.559 768.25 321.132 769.153 320.964C770.056 320.796 770.938 321.908 771.253 323.441Z" fill="#263238"></path> <path d="M729.216 294.696C727.68 296.201 726.615 298.119 726.15 300.218C724.893 304.658 724.529 309.303 725.08 313.885C725.632 318.466 727.088 322.892 729.363 326.906C730.763 326.735 732.181 326.791 733.562 327.074C735.032 327.452 736.922 329.972 737.615 331.274C738.222 332.662 738.571 334.149 738.644 335.662C738.308 331.673 737.993 327.704 737.657 323.715C737.431 322.12 737.503 320.497 737.867 318.927V318.927C738.896 315.652 737.762 307.925 738.056 301.016C746.77 311.662 759.431 309.772 763.631 309.415C769.93 308.89 775.306 302.444 774.97 297.846C774.634 293.247 773.395 281.405 752.628 280.187C748.053 279.7 743.441 280.662 739.442 282.938C738.174 283.773 737.098 284.867 736.283 286.148C735.469 287.429 734.935 288.868 734.717 290.371C734.423 292.302 735.158 292.47 733.688 293.415C732.219 294.36 730.665 293.457 729.216 294.696Z" fill="#263238" stroke="#263238" stroke-linecap="round" stroke-linejoin="round"></path> <path d="M756.723 342.549C756.723 342.549 759.81 345.951 766.256 343.704Z" fill="white"></path> <path d="M756.723 342.549C756.723 342.549 759.81 345.951 766.256 343.704" stroke="#263238" stroke-linecap="round" stroke-linejoin="round"></path> </svg> 